PathFileType	4	(X/Y/Z)	S01_Demo_SingleTrial_0-100.trc
DataRate	CameraRate	NumFrames	NumMarkers	Units	OrigDataRate	OrigDataStartFrame	OrigNumFrames
60	60	6	21	m	60	75	100
Frame#	Time	RHip			RKnee			RAnkle			RBigToe			RSmallToe			RHeel			LHip			LKnee			LAnkle			LBigToe			LSmallToe			LHeel			Neck			Head			Nose			RShoulder			RElbow			RWrist			LShoulder			LElbow			LWrist		
		X1	Y1	Z1	X2	Y2	Z2	X3	Y3	Z3	X4	Y4	Z4	X5	Y5	Z5	X6	Y6	Z6	X7	Y7	Z7	X8	Y8	Z8	X9	Y9	Z9	X10	Y10	Z10	X11	Y11	Z11	X12	Y12	Z12	X13	Y13	Z13	X14	Y14	Z14	X15	Y15	Z15	X16	Y16	Z16	X17	Y17	Z17	X18	Y18	Z18	X19	Y19	Z19	X20	Y20	Z20	X21	Y21	Z21
76	1.2666666666666666	-0.16999680408878526	0.9412514917698215	-0.8361680116261194	-0.14050440299112218	0.5247469410570381	-0.780634821735504	-0.07351255936107709	0.16169321235605943	-0.7097562746923554	-0.05918264734220372	0.058926206214542795	-0.6038471172426454	-0.10214050837602082	0.06722581567681589	-0.6028857542552573	-0.06911588358232976	0.11761427137271101	-0.730445291746109	0.034669134939918515	0.8876507194204103	-0.9054029853058789	-0.0029148541990520957	0.5139710578382128	-0.8989700261856365	-0.025477292907431618	0.15574371736073037	-1.1472357801210147	0.0009486781550036549	0.07073169924249592	-0.9826067136927914	0.013706681820183583	0.07161609077069124	-1.0453009415302874	-0.03396961657236953	0.14406451138141083	-1.1326575577698978	0.09948762278655388	1.3958353810558684	-0.7792539125140213	0.19381603236006162	1.614969047551999	-0.7046149248582853	0.15583352434218314	1.4478943289702015	-0.5841296620773314	-0.05815251832218049	1.4416077296322158	-0.747799868508382	-0.3335136629555755	1.3935896677561017	-0.7810182247772397	-0.2930429919083142	1.4520583643651188	-0.5539046353605296	0.23739136501862262	1.3215516365462452	-0.8639815634659957	0.3490488478093727	1.072285224125874	-0.9657712755381921	0.44581676887395766	0.8401447564648669	-0.8337321687008378
77	1.2833333333333334	-0.1613565593186938	0.9348300529697612	-0.8235514735725908	-0.1259905957613874	0.5262134259779986	-0.7590417045193472	-0.06498925793394318	0.1532150762628211	-0.7214526477677569	-0.05410814486495845	0.051393491440376735	-0.611418868105641	-0.09332879532546395	0.05951359218163034	-0.6109496420292404	-0.05966974211293359	0.1088694320273642	-0.7497583243892358	0.04302528798531652	0.8841618780326335	-0.8879104129405346	0.002456856032318649	0.5095749158435425	-0.8938105033982952	-0.02601681002263007	0.15887949247362892	-1.145495902926369	0.003213589827136444	0.07131708578368463	-0.9834088843292126	0.014779607684155333	0.07255409737751757	-1.044750113537974	-0.03575852492029513	0.1486134041804648	-1.1379268683500523	0.08947395056675017	1.401298651175429	-0.7716166571553215	0.178577282447386	1.622744131175833	-0.6858254256312597	0.14127525250317516	1.458836414714354	-0.5751266601105485	-0.07187805201549012	1.437515079884214	-0.7408350918451689	-0.34422079152635904	1.3810731907227307	-0.7641769170988223	-0.3088973822419763	1.4374802337588626	-0.539035612221933	0.22724804750948696	1.3295967749246838	-0.8657972672021335	0.35160920095426673	1.0857368066225148	-0.9681606546021434	0.4550230197034668	0.8587852027237495	-0.8264898436049951
78	1.3	-0.15296522360681858	0.9286612825865259	-0.8120663722317716	-0.11391468775667403	0.5281380196476153	-0.7377404768122033	-0.05919249416193097	0.14393657536115817	-0.7340833986180088	-0.0523167271790997	0.04468449048049286	-0.6191513817258985	-0.08659640685931425	0.05217283984094336	-0.6181549849529637	-0.052458880837719615	0.10021500486862099	-0.7679409224475943	0.04895355747079701	0.8816174561138455	-0.8755327761915042	0.008360245797841457	0.5045252213817552	-0.8859873003851454	-0.026169729082987134	0.16198974360297635	-1.1452820984130214	0.0044159301910197055	0.0716616371995709	-0.9846944148405754	0.01496894613197841	0.07342358420298872	-1.045215517728721	-0.03661902113657933	0.15350517421572707	-1.1452196090787743	0.07831199016444039	1.406430480643608	-0.7622595657581525	0.16703356394107186	1.6280516560603486	-0.6497337617169876	0.12538397495551076	1.468442278341486	-0.5663445214164435	-0.08582975056864861	1.4331769436443347	-0.7358297862790822	-0.3533001197693203	1.3680577184967133	-0.7475348517442834	-0.32254146762118896	1.4256936312480089	-0.5229186016076945	0.2181858355240608	1.3386081349924293	-0.8611203895110923	0.35754466204958607	1.1010216971866813	-0.9617944293810805	0.4646576749266525	0.8752474520206254	-0.8260931376876313
79	1.3166666666666669	-0.1453817157245927	0.9232066016646806	-0.8016453989526148	-0.10501803479732026	0.5295737689888912	-0.7191332189623381	-0.05564973740917752	0.13542158698915188	-0.7450191974018039	-0.052903733883796704	0.03957389942403414	-0.6258589537757842	-0.08176676446008994	0.04554755084829987	-0.6235427162493477	-0.04727425676173704	0.09286972657249389	-0.7812941685332666	0.05419913295403524	0.8802648263457795	-0.8647010518823495	0.014996294130990384	0.49965632727907483	-0.8753877619318026	-0.025330456669848657	0.16572173307813357	-1.1452843894292184	0.004726194249641675	0.07217170786508936	-0.9862321832167831	0.014639203980995236	0.0745247884921726	-1.045996238049624	-0.03621297568601576	0.15914048460504923	-1.1528794996484093	0.06634145701143795	1.4108357652155206	-0.7508810060428537	0.15532162841435554	1.631785687897237	-0.6086150605552936	0.10802773244556055	1.476368266279242	-0.5565523271105941	-0.09978565864563385	1.428909867194943	-0.7326290092889852	-0.3608674005315806	1.3547756820311931	-0.7326336003021823	-0.33535906228209217	1.4146663833465927	-0.5052708229315651	0.2093953393594632	1.3479799349296921	-0.8527637704074323	0.3672147155523111	1.1190857911522092	-0.9432941738957131	0.4758528183282273	0.894970634294361	-0.8273320890659661
80	1.3333333333333333	-0.13878308700591918	0.9186871282732292	-0.7921755861773475	-0.09891316434566584	0.5307557074292432	-0.7032344115771412	-0.05387634140381225	0.12895238106978932	-0.7524031385579724	-0.05422777296952997	0.03655748701480826	-0.6299843037888554	-0.07846887601149437	0.03981496539137915	-0.6266079901173333	-0.04397884378851127	0.08751907352460313	-0.7888035001779296	0.06021852742954687	0.8801532704412265	-0.8525298397271818	0.022511187609477026	0.4957743472423082	-0.8622344994398023	-0.023108716774497332	0.1710325596117826	-1.1430090488940274	0.004485215395502144	0.07333506446172267	-0.9873081089659863	0.014293517255645758	0.07650585142366599	-1.0453627546874396	-0.03413613722989131	0.165919864330156	-1.1583288992166743	0.054074631471431586	1.414168853891748	-0.7380021871895752	0.1399725920104236	1.6349009356058186	-0.5718425060072447	0.08948889838535794	1.482545427173614	-0.5451160331113449	-0.11376198815283585	1.4249847832531686	-0.7302443740789566	-0.36713312372165235	1.3413195132417501	-0.7202376582604265	-0.3498260889268652	1.4018428792561726	-0.4886229146589368	0.19946161717371708	1.3571868439809605	-0.8457531732163901	0.38040708407411483	1.1395927288690095	-0.9132994664693909	0.49005751393462765	0.9235818863973839	-0.8239720801204689
81	1.35	-0.1327930639777953	0.9150716606277419	-0.783328336609306	-0.09463761607088401	0.5319797786374866	-0.6894847580568343	-0.05327811432252317	0.12489646896021686	-0.7561164627916498	-0.05478728738049841	0.0354597527665771	-0.6302192027441402	-0.07641028986623359	0.03497777990757952	-0.6276587939026651	-0.04218284137750802	0.08430228037449226	-0.7918534135926714	0.06751965282423672	0.8810866295342298	-0.8381677711834908	0.031053615204122288	0.49329305430991394	-0.8463126400933596	-0.019295976769874223	0.17843163088779707	-1.1362488476713772	0.003919224053888044	0.07557155147427974	-0.9867029688087372	0.01447520304166849	0.08004228710145908	-1.0412784193343756	-0.029878041445742284	0.17393223326788418	-1.159483404923687	0.04190931995268668	1.4162679737462893	-0.7245633255396192	0.11960675510180092	1.638034841148114	-0.542114966098802	0.0707121468527954	1.4870150258114414	-0.5324901314875908	-0.1274994737510774	1.4216474246207176	-0.72608066371856	-0.37236571146889824	1.327593734182871	-0.7100188772436123	-0.36803183246732146	1.3860032277791903	-0.47755900649937844	0.18790744545324684	1.3662775489536907	-0.8417464155196844	0.39511459528879717	1.1616147478843815	-0.8779853743915794	0.5078997307279337	0.9629766566318498	-0.811932888945794
